<svg width="100" height="101" viewBox="0 0 100 101" fill="none" xmlns="http://www.w3.org/2000/svg">
<path d="M24.3292 36.6385H42.6662V38.089H26.0101V49.0055H41.673V50.4559H26.0101V62.4412H42.8572V63.8917H24.3292V36.6385ZM44.3089 36.6385H46.2572L54.8909 48.6238L63.7156 36.6385L75.7186 21.4144L55.9987 49.8834L66.1605 63.8917H64.1358L54.8909 51.143L45.6078 63.8917H43.6213L53.8594 49.8834L44.3089 36.6385ZM66.8863 38.089V36.6385H87.7829V38.089H78.156V63.8917H76.4751V38.089H66.8863Z" fill="white"/>
<path d="M1.38889 36.6384H3.49L32.4631 79.7857L20.4899 63.8916L3.14619 38.6996L3.06978 63.8916H1.38889V36.6384Z" fill="white"/>
<path d="M87.6136 62.0034C87.9611 62.0034 88.2145 61.7386 88.2145 61.3964C88.2145 61.0542 87.9611 60.7894 87.6136 60.7894C87.2701 60.7894 87.0126 61.0542 87.0126 61.3964C87.0126 61.7386 87.2701 62.0034 87.6136 62.0034ZM89.2652 60.4064C89.2652 61.4168 89.997 62.0768 91.0641 62.0768C92.2006 62.0768 92.8875 61.3964 92.8875 60.215V56.0554H91.9717V60.2109C91.9717 60.8668 91.6405 61.2172 91.0559 61.2172C90.5326 61.2172 90.1769 60.8912 90.1647 60.4064H89.2652ZM94.0853 60.3535C94.1508 61.4046 95.0298 62.0768 96.338 62.0768C97.7362 62.0768 98.6111 61.372 98.6111 60.2476C98.6111 59.3635 98.1123 58.8746 96.9022 58.5935L96.2522 58.4346C95.4835 58.2554 95.1728 58.015 95.1728 57.5954C95.1728 57.0658 95.6553 56.7195 96.3789 56.7195C97.0657 56.7195 97.54 57.0576 97.6258 57.5995H98.5171C98.4639 56.6095 97.589 55.9128 96.3912 55.9128C95.1033 55.9128 94.2448 56.6095 94.2448 57.6565C94.2448 58.5202 94.7313 59.0335 95.7984 59.282L96.5588 59.4654C97.3396 59.6487 97.6831 59.9176 97.6831 60.3657C97.6831 60.8872 97.1434 61.266 96.4075 61.266C95.6185 61.266 95.0706 60.9116 94.993 60.3535H94.0853Z" fill="white"/>
</svg>
