<svg width="100" height="101" viewBox="0 0 100 101" fill="none" xmlns="http://www.w3.org/2000/svg">
<path d="M50.4889 59.1715C55.2491 59.1715 59.1081 55.334 59.1081 50.6001C59.1081 45.8663 55.2491 42.0288 50.4889 42.0288C45.7286 42.0288 41.8697 45.8663 41.8697 50.6001C41.8697 55.334 45.7286 59.1715 50.4889 59.1715Z" fill="#61DAFB"/>
<path fill-rule="evenodd" clip-rule="evenodd" d="M9.96143 46.0901C8.00682 47.8448 7.36435 49.3746 7.36435 50.6001C7.36435 51.8256 8.00682 53.3554 9.96143 55.1101C11.9147 56.8636 14.9175 58.5858 18.8948 60.096C26.8273 63.1079 37.9967 65.0359 50.4888 65.0359C62.981 65.0359 74.1503 63.1079 82.0829 60.096C86.0601 58.5858 89.063 56.8636 91.0162 55.1101C92.9709 53.3554 93.6133 51.8256 93.6133 50.6001C93.6133 49.3746 92.9709 47.8448 91.0162 46.0901C89.063 44.3366 86.0601 42.6144 82.0829 41.1042C74.1503 38.0923 62.981 36.1643 50.4888 36.1643C37.9967 36.1643 26.8273 38.0923 18.8948 41.1042C14.9175 42.6144 11.9147 44.3366 9.96143 46.0901ZM16.6762 35.2612C25.4827 31.9175 37.4381 29.9143 50.4888 29.9143C63.5396 29.9143 75.495 31.9175 84.3014 35.2612C88.6937 36.929 92.464 38.9908 95.1914 41.4392C97.9175 43.8864 99.8633 46.9763 99.8633 50.6001C99.8633 54.2239 97.9175 57.3138 95.1914 59.761C92.464 62.2094 88.6937 64.2712 84.3014 65.9389C75.495 69.2827 63.5396 71.2859 50.4888 71.2859C37.4381 71.2859 25.4827 69.2827 16.6762 65.9389C12.284 64.2712 8.51371 62.2094 5.7863 59.761C3.06021 57.3138 1.11435 54.2239 1.11435 50.6001C1.11435 46.9763 3.06021 43.8864 5.7863 41.4392C8.51371 38.9908 12.284 36.929 16.6762 35.2612Z" fill="#61DAFB"/>
<path fill-rule="evenodd" clip-rule="evenodd" d="M34.1779 13.449C31.6757 12.644 30.0136 12.8516 28.9331 13.4719C27.8526 14.0923 26.8408 15.4199 26.2907 17.9774C25.7406 20.535 25.7422 23.9798 26.4152 28.1575C27.7578 36.4904 31.6616 47.0693 37.9058 57.8245C44.15 68.5797 51.4109 77.2312 57.9965 82.5539C61.2982 85.2224 64.2973 86.9462 66.7997 87.7512C69.3019 88.5562 70.964 88.3486 72.0445 87.7283C73.125 87.1079 74.1368 85.7803 74.6869 83.2228C75.237 80.6652 75.2354 77.2204 74.5623 73.0427C73.2198 64.7098 69.3159 54.1309 63.0717 43.3757C56.8276 32.6205 49.5667 23.969 42.9811 18.6463C39.6794 15.9778 36.6803 14.254 34.1779 13.449ZM46.9208 13.8074C54.2397 19.7227 61.9647 29.021 68.4919 40.2637C75.0192 51.5064 79.2542 62.8084 80.7462 72.0692C81.4904 76.6884 81.58 80.9687 80.8112 84.5432C80.0423 88.1178 78.3251 91.3291 75.1826 93.1334C72.04 94.9376 68.3848 94.8108 64.8874 93.6857C61.3901 92.5606 57.7073 90.3433 54.0567 87.3928C46.7378 81.4775 39.0129 72.1792 32.4856 60.9365C25.9584 49.6937 21.7233 38.3918 20.2313 29.131C19.4872 24.5118 19.3976 20.2315 20.1664 16.657C20.9353 13.0824 22.6524 9.87112 25.795 8.06684C28.9376 6.26256 32.5928 6.38936 36.0902 7.51452C39.5874 8.63962 43.2702 10.8569 46.9208 13.8074Z" fill="#61DAFB"/>
<path fill-rule="evenodd" clip-rule="evenodd" d="M74.6869 17.9774C74.1369 15.4199 73.125 14.0923 72.0445 13.4719C70.964 12.8516 69.3019 12.644 66.7997 13.449C64.2974 14.254 61.2982 15.9778 57.9965 18.6463C51.4109 23.969 44.1501 32.6205 37.9059 43.3757C31.6617 54.1308 27.7578 64.7098 26.4153 73.0427C25.7422 77.2204 25.7406 80.6652 26.2907 83.2228C26.8408 85.7802 27.8526 87.1079 28.9331 87.7282C30.0136 88.3486 31.6757 88.5562 34.1779 87.7512C36.6803 86.9461 39.6795 85.2224 42.9811 82.5539C49.5667 77.2312 56.8276 68.5797 63.0718 57.8245C69.316 47.0693 73.2199 36.4904 74.5624 28.1574C75.2354 23.9798 75.237 20.535 74.6869 17.9774ZM80.7463 29.131C79.2543 38.3918 75.0192 49.6937 68.492 60.9365C61.9647 72.1792 54.2398 81.4774 46.9209 87.3928C43.2703 90.3433 39.5875 92.5606 36.0903 93.6857C32.5928 94.8108 28.9376 94.9376 25.7951 93.1333C22.6525 91.3291 20.9353 88.1177 20.1665 84.5431C19.3976 80.9687 19.4872 76.6884 20.2314 72.0692C21.7234 62.8084 25.9584 51.5064 32.4857 40.2637C39.0129 29.021 46.7379 19.7227 54.0568 13.8074C57.7074 10.8569 61.3902 8.63961 64.8874 7.51451C68.3848 6.38935 72.04 6.26255 75.1826 8.06683C78.3252 9.87111 80.0424 13.0824 80.8112 16.657C81.58 20.2315 81.4905 24.5118 80.7463 29.131Z" fill="#61DAFB"/>
</svg>
