<svg width="280" height="60" viewBox="0 0 280 60" fill="none" xmlns="http://www.w3.org/2000/svg">
<path d="M38.1625 51.5965C36.692 53.0277 34.308 53.0277 32.8375 51.5965L5.325 24.8168L0 30L27.5125 56.7796C31.9239 61.0735 39.0761 61.0735 43.4875 56.7796L71 30L65.675 24.8168L38.1625 51.5965Z" fill="white"/>
<path fill-rule="evenodd" clip-rule="evenodd" d="M43.4875 3.22039L62.125 21.3614L38.1624 44.6856C36.692 46.1169 34.308 46.1169 32.8376 44.6856C32.1314 43.9983 31.7347 43.0661 31.7347 42.0941V9.47694L14.2 26.5446L8.87502 21.3614L27.5125 3.2204C31.9239 -1.07346 39.0761 -1.07347 43.4875 3.22039ZM39.2654 9.47705L51.475 21.3614L39.2654 33.2458V9.47705Z" fill="white"/>
<path d="M97.6451 12V47.5674H91V12H97.6451Z" fill="white"/>
<path d="M128.655 33.6769C128.655 34.6382 128.592 35.5033 128.465 36.2724H109.242C109.4 38.1949 110.064 39.7009 111.235 40.7904C112.406 41.8798 113.846 42.4246 115.555 42.4246C118.023 42.4246 119.779 41.3511 120.823 39.2043H127.99C127.231 41.7677 125.775 43.8825 123.624 45.5487C121.472 47.1829 118.83 48 115.697 48C113.166 48 110.887 47.4393 108.862 46.3178C106.869 45.1642 105.302 43.5461 104.163 41.4633C103.055 39.3805 102.502 36.9773 102.502 34.2537C102.502 31.498 103.055 29.0788 104.163 26.996C105.271 24.9132 106.821 23.3111 108.815 22.1896C110.808 21.0681 113.102 20.5073 115.697 20.5073C118.197 20.5073 120.428 21.0521 122.39 22.1415C124.383 23.231 125.918 24.785 126.994 26.8037C128.101 28.7904 128.655 31.0814 128.655 33.6769ZM121.773 31.7543C121.741 30.024 121.124 28.6462 119.921 27.6208C118.719 26.5634 117.248 26.0347 115.507 26.0347C113.862 26.0347 112.469 26.5474 111.33 27.5728C110.223 28.5661 109.542 29.9599 109.289 31.7543H121.773Z" fill="white"/>
<path d="M139.581 42.0401H151.305V47.5674H132.034V42.1362L143.52 26.4673H132.081V20.9399H151.162V26.3712L139.581 42.0401Z" fill="white"/>
<path d="M162.525 42.0401H174.249V47.5674H154.978V42.1362L166.465 26.4673H155.026V20.9399H174.107V26.3712L162.525 42.0401Z" fill="white"/>
<path d="M178.682 34.494C178.682 31.8024 179.204 29.4473 180.249 27.4286C181.325 25.4099 182.796 23.8558 184.663 22.7664C186.561 21.6769 188.713 21.1322 191.118 21.1322C193.839 21.1322 196.149 21.8051 198.048 23.1509C199.947 24.4967 201.276 26.2109 202.035 28.2937V21.4686H204.171V47.5674H202.035V40.6943C201.276 42.8091 199.931 44.5554 198.001 45.9332C196.102 47.279 193.808 47.9519 191.118 47.9519C188.713 47.9519 186.561 47.4072 184.663 46.3178C182.796 45.1963 181.325 43.6262 180.249 41.6075C179.204 39.5567 178.682 37.1856 178.682 34.494ZM202.035 34.494C202.035 32.219 201.56 30.2163 200.611 28.486C199.693 26.7236 198.428 25.3778 196.814 24.4486C195.2 23.4873 193.396 23.0067 191.403 23.0067C189.314 23.0067 187.479 23.4713 185.897 24.4005C184.315 25.2977 183.081 26.6115 182.195 28.3418C181.309 30.0721 180.866 32.1228 180.866 34.494C180.866 36.8652 181.309 38.9159 182.195 40.6462C183.081 42.3765 184.315 43.7063 185.897 44.6355C187.511 45.5648 189.346 46.0294 191.403 46.0294C193.396 46.0294 195.2 45.5648 196.814 44.6355C198.459 43.6742 199.741 42.3284 200.659 40.5981C201.576 38.8358 202.035 36.8011 202.035 34.494Z" fill="white"/>
<path d="M233.735 21.4686V47.5674H231.599V41.8959C230.871 43.8825 229.653 45.4045 227.944 46.462C226.267 47.4873 224.337 48 222.153 48C219.084 48 216.568 47.0547 214.606 45.1642C212.676 43.2417 211.711 40.4059 211.711 36.6569V21.4686H213.799V36.5127C213.799 39.6208 214.575 42.008 216.125 43.6742C217.676 45.3084 219.78 46.1255 222.438 46.1255C225.223 46.1255 227.438 45.2283 229.083 43.4339C230.76 41.6395 231.599 38.98 231.599 35.4553V21.4686H233.735Z" fill="white"/>
<path d="M244.701 23.3431V40.5981C244.701 42.5207 245.049 43.8505 245.745 44.5874C246.442 45.2924 247.676 45.6449 249.448 45.6449H252.343V47.5674H249.115C246.869 47.5674 245.208 47.0387 244.132 45.9813C243.087 44.8919 242.565 43.0975 242.565 40.5981V23.3431H238.673V21.4686H242.565V14.8358H244.701V21.4686H252.343V23.3431H244.701Z" fill="white"/>
<path d="M269.653 20.9399C272.69 20.9399 275.174 21.9012 277.105 23.8238C279.035 25.7143 280 28.534 280 32.283V47.5674H277.912V32.4272C277.912 29.3191 277.136 26.9479 275.586 25.3138C274.035 23.6475 271.931 22.8144 269.273 22.8144C266.488 22.8144 264.257 23.7116 262.58 25.506C260.935 27.3004 260.112 29.9599 260.112 33.4846V47.5674H257.976V12H260.112V26.996C260.84 25.0414 262.058 23.5514 263.767 22.526C265.476 21.4686 267.438 20.9399 269.653 20.9399Z" fill="white"/>
</svg>
