<svg width="189" height="36" viewBox="0 0 189 36" fill="none" xmlns="http://www.w3.org/2000/svg">
<path d="M6.6451 0V35.5674H0V0H6.6451Z" fill="white"/>
<path d="M37.6549 21.6769C37.6549 22.6382 37.5916 23.5033 37.4651 24.2724H18.2418C18.4 26.1949 19.0645 27.7009 20.2353 28.7904C21.4061 29.8798 22.8459 30.4246 24.5546 30.4246C27.0228 30.4246 28.779 29.3511 29.8232 27.2043H36.9904C36.231 29.7677 34.7754 31.8825 32.6236 33.5487C30.4719 35.1829 27.8297 36 24.697 36C22.1655 36 19.8872 35.4393 17.862 34.3178C15.8685 33.1642 14.3022 31.5461 13.163 29.4633C12.0555 27.3805 11.5017 24.9773 11.5017 22.2537C11.5017 19.498 12.0555 17.0788 13.163 14.996C14.2705 12.9132 15.821 11.3111 17.8146 10.1896C19.8081 9.06809 22.1022 8.50734 24.697 8.50734C27.1968 8.50734 29.4277 9.05207 31.3896 10.1415C33.3831 11.231 34.9178 12.785 35.9937 14.8037C37.1012 16.7904 37.6549 19.0814 37.6549 21.6769ZM30.7725 19.7543C30.7409 18.024 30.1238 16.6462 28.9214 15.6208C27.7189 14.5634 26.2475 14.0347 24.5071 14.0347C22.8617 14.0347 21.4694 14.5474 20.3302 15.5728C19.2227 16.5661 18.5424 17.9599 18.2892 19.7543H30.7725Z" fill="white"/>
<path d="M48.5808 30.0401H60.3046V35.5674H41.0338V30.1362L52.5204 14.4673H41.0813V8.93992H60.1622V14.3712L48.5808 30.0401Z" fill="white"/>
<path d="M71.5253 30.0401H83.2491V35.5674H63.9783V30.1362L75.4649 14.4673H64.0258V8.93992H83.1067V14.3712L71.5253 30.0401Z" fill="white"/>
<path d="M87.6823 22.494C87.6823 19.8024 88.2044 17.4473 89.2486 15.4286C90.3245 13.4099 91.7959 11.8558 93.6629 10.7664C95.5615 9.6769 97.7132 9.13218 100.118 9.13218C102.839 9.13218 105.149 9.80507 107.048 11.1509C108.947 12.4967 110.276 14.2109 111.035 16.2937V9.46862H113.171V35.5674H111.035V28.6943C110.276 30.8091 108.931 32.5554 107.001 33.9332C105.102 35.279 102.808 35.9519 100.118 35.9519C97.7132 35.9519 95.5615 35.4072 93.6629 34.3178C91.7959 33.1963 90.3245 31.6262 89.2486 29.6075C88.2044 27.5567 87.6823 25.1856 87.6823 22.494ZM111.035 22.494C111.035 20.219 110.56 18.2163 109.611 16.486C108.693 14.7236 107.428 13.3778 105.814 12.4486C104.2 11.4873 102.396 11.0067 100.403 11.0067C98.3144 11.0067 96.4791 11.4713 94.897 12.4005C93.3148 13.2977 92.0807 14.6115 91.1947 16.3418C90.3087 18.0721 89.8657 20.1228 89.8657 22.494C89.8657 24.8652 90.3087 26.9159 91.1947 28.6462C92.0807 30.3765 93.3148 31.7063 94.897 32.6355C96.5108 33.5648 98.3461 34.0294 100.403 34.0294C102.396 34.0294 104.2 33.5648 105.814 32.6355C107.459 31.6742 108.741 30.3284 109.659 28.5981C110.576 26.8358 111.035 24.8011 111.035 22.494Z" fill="white"/>
<path d="M142.735 9.46862V35.5674H140.599V29.8959C139.871 31.8825 138.653 33.4045 136.944 34.462C135.267 35.4873 133.337 36 131.153 36C128.084 36 125.568 35.0547 123.606 33.1642C121.676 31.2417 120.711 28.4059 120.711 24.6569V9.46862H122.799V24.5127C122.799 27.6208 123.575 30.008 125.125 31.6742C126.676 33.3084 128.78 34.1255 131.438 34.1255C134.223 34.1255 136.438 33.2283 138.083 31.4339C139.76 29.6395 140.599 26.98 140.599 23.4553V9.46862H142.735Z" fill="white"/>
<path d="M153.701 11.3431V28.5981C153.701 30.5207 154.049 31.8505 154.745 32.5874C155.442 33.2924 156.676 33.6449 158.448 33.6449H161.343V35.5674H158.115C155.869 35.5674 154.208 35.0387 153.132 33.9813C152.087 32.8919 151.565 31.0975 151.565 28.5981V11.3431H147.673V9.46862H151.565V2.83578H153.701V9.46862H161.343V11.3431H153.701Z" fill="white"/>
<path d="M178.653 8.93992C181.69 8.93992 184.174 9.9012 186.105 11.8238C188.035 13.7143 189 16.534 189 20.283V35.5674H186.912V20.4272C186.912 17.3191 186.136 14.9479 184.586 13.3138C183.035 11.6475 180.931 10.8144 178.273 10.8144C175.488 10.8144 173.257 11.7116 171.58 13.506C169.935 15.3004 169.112 17.9599 169.112 21.4846V35.5674H166.976V0H169.112V14.996C169.84 13.0414 171.058 11.5514 172.767 10.526C174.476 9.46862 176.438 8.93992 178.653 8.93992Z" fill="white"/>
</svg>
