<svg width="71" height="60" viewBox="0 0 71 60" fill="none" xmlns="http://www.w3.org/2000/svg">
<path d="M38.1625 51.5965C36.692 53.0277 34.308 53.0277 32.8375 51.5965L5.325 24.8168L0 30L27.5125 56.7796C31.9239 61.0735 39.0761 61.0735 43.4875 56.7796L71 30L65.675 24.8168L38.1625 51.5965Z" fill="white"/>
<path fill-rule="evenodd" clip-rule="evenodd" d="M43.4875 3.22039L62.125 21.3614L38.1624 44.6856C36.692 46.1169 34.308 46.1169 32.8376 44.6856C32.1314 43.9983 31.7347 43.0661 31.7347 42.0941V9.47694L14.2 26.5446L8.87502 21.3614L27.5125 3.2204C31.9239 -1.07346 39.0761 -1.07347 43.4875 3.22039ZM39.2654 9.47705L51.475 21.3614L39.2654 33.2458V9.47705Z" fill="white"/>
</svg>
